<svg width="114" height="40" viewBox="0 0 114 40" fill="none" xmlns="http://www.w3.org/2000/svg">
<path d="M26.908 13.764C24.98 13.764 23.36 14.394 22.092 15.63L22.304 14.432C22.316 14.366 22.298 14.298 22.254 14.248C22.21 14.196 22.148 14.168 22.08 14.168H18.77C18.66 14.168 18.566 14.246 18.548 14.354L15.834 29.682C15.822 29.748 15.84 29.816 15.884 29.866C15.928 29.918 15.99 29.946 16.058 29.946H19.368C19.478 29.946 19.572 29.868 19.59 29.76L21.046 21.544C21.522 18.858 23.144 17.316 25.498 17.316C26.462 17.316 27.206 17.596 27.65 18.124C28.12 18.684 28.268 19.542 28.08 20.606L26.474 29.68C26.462 29.746 26.48 29.814 26.524 29.864C26.568 29.916 26.63 29.944 26.698 29.944H30.01C30.12 29.944 30.214 29.866 30.232 29.758L31.898 20.346C32.262 18.292 31.932 16.582 30.946 15.404C30.046 14.332 28.65 13.764 26.908 13.764ZM14.228 12.482C14.84 12.482 15.42 12.238 15.864 11.794C16.32 11.338 16.574 10.75 16.578 10.138C16.582 9.528 16.34 8.946 15.898 8.504C15.454 8.044 14.864 7.792 14.232 7.792C13.6 7.792 13.01 8.046 12.57 8.502C11.648 9.424 11.646 10.838 12.572 11.798C13.03 12.24 13.618 12.482 14.228 12.482ZM15.256 14.168H11.946C11.836 14.168 11.742 14.246 11.724 14.354L9.01 29.682C8.998 29.748 9.016 29.816 9.06 29.866C9.104 29.918 9.166 29.946 9.234 29.946H12.544C12.654 29.946 12.748 29.868 12.766 29.76L15.48 14.432C15.492 14.366 15.474 14.298 15.43 14.248C15.386 14.196 15.324 14.168 15.256 14.168ZM53.034 13.77C50.89 13.77 49.164 14.496 47.896 15.93V8.262C47.896 8.136 47.794 8.036 47.67 8.036H44.358C44.232 8.036 44.132 8.138 44.132 8.262V29.722C44.132 29.848 44.234 29.948 44.358 29.948H47.67C47.796 29.948 47.896 29.846 47.896 29.722V28.164C49.158 29.612 50.884 30.346 53.034 30.346C55.184 30.346 57.042 29.562 58.594 27.946C60.12 26.358 60.894 24.376 60.894 22.056C60.894 19.736 60.12 17.756 58.594 16.166C57.042 14.552 55.224 13.766 53.034 13.766V13.77ZM55.818 25.426C54.946 26.298 53.834 26.74 52.514 26.74C51.194 26.74 50.08 26.298 49.212 25.43C48.326 24.516 47.896 23.414 47.896 22.062C47.896 20.71 48.338 19.598 49.212 18.724C50.074 17.834 51.184 17.382 52.514 17.382C53.844 17.382 54.954 17.834 55.818 18.726C56.69 19.598 57.132 20.72 57.132 22.062C57.132 23.404 56.702 24.516 55.818 25.428V25.426ZM79.064 14.17H75.754C75.628 14.17 75.528 14.272 75.528 14.396V15.93C74.26 14.496 72.534 13.77 70.39 13.77C68.246 13.77 66.382 14.554 64.832 16.17C63.304 17.76 62.53 19.74 62.53 22.06C62.53 24.38 63.304 26.36 64.832 27.95C66.384 29.564 68.202 30.35 70.39 30.35C72.578 30.35 74.266 29.616 75.528 28.168V29.726C75.528 29.852 75.63 29.952 75.754 29.952H79.064C79.19 29.952 79.29 29.85 79.29 29.726V14.394C79.29 14.268 79.188 14.168 79.064 14.168V14.17ZM74.214 25.426C73.342 26.298 72.23 26.74 70.91 26.74C69.59 26.74 68.476 26.298 67.608 25.43C66.722 24.516 66.292 23.414 66.292 22.062C66.292 20.71 66.734 19.598 67.608 18.724C68.47 17.834 69.58 17.382 70.91 17.382C72.24 17.382 73.35 17.834 74.214 18.726C75.086 19.598 75.528 20.72 75.528 22.062C75.528 23.404 75.098 24.516 74.214 25.428V25.426ZM90.524 13.77C88.576 13.77 87.056 14.408 85.998 15.67V14.396C85.998 14.27 85.896 14.17 85.772 14.17H82.462C82.336 14.17 82.236 14.272 82.236 14.396V29.724C82.236 29.85 82.338 29.95 82.462 29.95H85.772C85.898 29.95 85.998 29.848 85.998 29.724V21.508C85.998 18.808 87.3 17.32 89.666 17.32C91.704 17.32 92.874 18.534 92.874 20.65V29.724C92.874 29.85 92.976 29.95 93.1 29.95H96.412C96.538 29.95 96.638 29.848 96.638 29.724V20.312C96.638 16.338 94.238 13.77 90.526 13.77H90.524ZM20 0C12.12 0 7.448 1.31 4.378 4.378C1.308 7.448 0 12.118 0 20C0 27.882 1.31 32.552 4.378 35.622C7.448 38.692 12.118 40 20 40C27.882 40 32.552 38.69 35.622 35.622C38.692 32.554 40 27.882 40 20C40 12.118 38.69 7.448 35.622 4.378C32.552 1.31 27.882 0 20 0ZM32.96 32.96C30.694 35.226 26.698 36.236 20 36.236C13.302 36.236 9.306 35.226 7.04 32.96C4.774 30.694 3.764 26.698 3.764 20C3.764 13.302 4.774 9.306 7.04 7.04C9.306 4.774 13.302 3.764 20 3.764C26.698 3.764 30.694 4.774 32.96 7.04C35.226 9.306 36.236 13.302 36.236 20C36.236 26.698 35.226 30.694 32.96 32.96ZM113.264 29.572L106.41 21.906L113.02 14.546C113.08 14.48 113.094 14.384 113.058 14.302C113.022 14.22 112.94 14.168 112.852 14.168H108.806C108.74 14.168 108.678 14.196 108.636 14.246L103.084 20.57V8.262C103.084 8.136 102.982 8.036 102.858 8.036H99.548C99.422 8.036 99.322 8.138 99.322 8.262V29.722C99.322 29.848 99.424 29.948 99.548 29.948H102.858C102.984 29.948 103.084 29.846 103.084 29.722V23.236L108.974 29.872C109.016 29.92 109.078 29.948 109.144 29.948H113.098C113.188 29.948 113.268 29.896 113.304 29.814C113.34 29.732 113.326 29.638 113.266 29.57L113.264 29.572Z" fill="#21093A"/>
</svg>
